<svg xmlns="http://www.w3.org/2000/svg" viewBox="0 0 1280 640" role="img" aria-labelledby="title description">
  <title id="title">Kubecode social preview</title>
  <desc id="description">Kubecode, a self-hosted project-oriented AI coding workspace.</desc>
  <defs>
    <linearGradient id="background" x1="112" y1="42" x2="1164" y2="598" gradientUnits="userSpaceOnUse">
      <stop stop-color="#11131A"/>
      <stop offset="1" stop-color="#1A1730"/>
    </linearGradient>
    <radialGradient id="glow" cx="0" cy="0" r="1" gradientTransform="translate(904 132) rotate(132) scale(522 645)" gradientUnits="userSpaceOnUse">
      <stop stop-color="#5B5CE2" stop-opacity=".32"/>
      <stop offset="1" stop-color="#5B5CE2" stop-opacity="0"/>
    </radialGradient>
  </defs>
  <rect width="1280" height="640" fill="url(#background)"/>
  <rect width="1280" height="640" fill="url(#glow)"/>
  <g transform="translate(126 178) scale(4.45)">
    <path fill="#5B5CE2" d="M8 10a4 4 0 0 1 4-4h9a4 4 0 0 1 4 4v17h6.7l12.7-19.1A4 4 0 0 1 47.7 6H56L38.5 31.7 57 58H46.4a4 4 0 0 1-3.3-1.7L31.7 39H25v15a4 4 0 0 1-4 4h-9a4 4 0 0 1-4-4V10Z"/>
    <path fill="#8B5CF6" d="M31.7 27 44.4 7.9A4 4 0 0 1 47.7 6H56L38.5 31.7 31.7 27Z"/>
    <rect width="8" height="8" x="27" y="28" fill="#fff" rx="2"/>
  </g>
  <text x="486" y="288" fill="#F7F8FC" font-family="Inter, ui-sans-serif, system-ui, sans-serif" font-size="92" font-weight="700" letter-spacing="-3">Kubecode</text>
  <text x="492" y="356" fill="#B8BDCC" font-family="Inter, ui-sans-serif, system-ui, sans-serif" font-size="30">A project-oriented AI coding workspace</text>
  <g fill="none" stroke="#767B8D" stroke-width="2">
    <rect width="168" height="52" x="492" y="406" rx="12"/>
    <rect width="126" height="52" x="676" y="406" rx="12"/>
    <rect width="166" height="52" x="818" y="406" rx="12"/>
  </g>
  <g fill="#D7DAE4" font-family="ui-monospace, SFMono-Regular, Menlo, monospace" font-size="18">
    <text x="519" y="439">Claude Code</text>
    <text x="707" y="439">Codex</text>
    <text x="846" y="439">OpenCode</text>
  </g>
</svg>
